<svg width="20" height="20" viewBox="0 0 20 20" fill="none" xmlns="http://www.w3.org/2000/svg">
<path fill-rule="evenodd" clip-rule="evenodd" d="M10.5065 6.18838L10.5925 6.21338C10.3805 5.25638 10.5375 4.33238 10.6815 3.48538C10.8345 2.58338 10.9705 1.78738 10.4985 1.30938C10.2875 1.09538 10.0175 1.00238 9.73849 0.99738C9.49349 0.99238 9.23649 1.05238 8.99649 1.15638C8.75249 1.26238 8.52649 1.41438 8.34549 1.59338C8.12749 1.80838 7.98349 2.05238 7.97149 2.27838C8.14349 2.61638 8.28349 2.99438 8.43049 3.39038C8.81349 4.42338 9.24949 5.59738 10.5065 6.18838ZM7.18049 6.99338C6.24349 6.69938 5.52149 6.10038 4.85849 5.55138C4.15449 4.96738 3.53249 4.45338 2.88449 4.62238C2.59349 4.69838 2.37849 4.88638 2.23349 5.12638C2.10749 5.33438 2.03149 5.58538 2.00149 5.84538C1.97149 6.11438 1.98949 6.38638 2.05249 6.63038C2.13049 6.92538 2.27049 7.17238 2.46249 7.29638C2.83949 7.31738 3.23549 7.38438 3.64949 7.45438C4.74049 7.64038 5.97949 7.85038 7.12549 7.04438L7.18049 6.99338ZM1.30849 7.44838C1.21449 7.27338 1.14049 7.08138 1.08849 6.88038C0.993487 6.51638 0.965487 6.11838 1.00949 5.73238C1.05449 5.33738 1.17549 4.94638 1.37749 4.61038C1.64849 4.16038 2.06349 3.80638 2.63449 3.65738C2.93349 3.57938 3.20949 3.56738 3.47049 3.60538C3.47549 3.40738 3.50749 3.20438 3.56349 3.00438C3.66249 2.64238 3.83749 2.28238 4.07049 1.96938C4.30749 1.64938 4.60749 1.37138 4.95049 1.18238C5.41049 0.92738 5.94449 0.82938 6.51149 0.98538C6.81049 1.06738 7.05649 1.19438 7.26349 1.35838C7.36749 1.18938 7.49749 1.02938 7.64549 0.88338C7.91049 0.62138 8.24249 0.39738 8.60249 0.24138C8.96749 0.0833802 9.36449 -0.00661976 9.75449 0.00038024C10.2825 0.0103802 10.7965 0.19238 11.2095 0.61038C11.4275 0.83038 11.5755 1.06338 11.6725 1.30838C11.8475 1.21438 12.0395 1.14138 12.2415 1.08838C12.6045 0.99338 13.0035 0.96538 13.3895 1.00938C13.7845 1.05438 14.1745 1.17538 14.5105 1.37838C14.9615 1.64938 15.3145 2.06438 15.4635 2.63438C15.5415 2.93338 15.5535 3.20938 15.5155 3.47038C15.7135 3.47638 15.9165 3.50838 16.1165 3.56338C16.4785 3.66238 16.8385 3.83838 17.1515 4.07038C17.4715 4.30738 17.7495 4.60738 17.9395 4.95038C18.1935 5.41138 18.2915 5.94438 18.1365 6.51138C18.0545 6.81038 17.9265 7.05638 17.7625 7.26438C17.9325 7.36838 18.0925 7.49738 18.2385 7.64638C18.4995 7.91038 18.7235 8.24338 18.8795 8.60238C19.0375 8.96738 19.1275 9.36538 19.1205 9.75438C19.1115 10.2834 18.9295 10.7974 18.5105 11.2104C18.2905 11.4274 18.0575 11.5754 17.8125 11.6734C17.9065 11.8484 17.9805 12.0404 18.0335 12.2414C18.1275 12.6054 18.1555 13.0034 18.1115 13.3894C18.0665 13.7844 17.9455 14.1744 17.7435 14.5114C17.4715 14.9614 17.0575 15.3154 16.4865 15.4644C16.1875 15.5414 15.9115 15.5534 15.6505 15.5154C15.6455 15.7144 15.6135 15.9164 15.5575 16.1174C15.4585 16.4784 15.2835 16.8384 15.0505 17.1524C14.8135 17.4724 14.5135 17.7494 14.1705 17.9394C13.7105 18.1944 13.1765 18.2924 12.6095 18.1364C12.3105 18.0544 12.0645 17.9264 11.8575 17.7624C11.7535 17.9324 11.6235 18.0924 11.4755 18.2394C11.2105 18.4994 10.8785 18.7244 10.5185 18.8804C10.1535 19.0384 9.75649 19.1284 9.36649 19.1214C8.83849 19.1124 8.32449 18.9294 7.91149 18.5114C7.69349 18.2914 7.54549 18.0584 7.44849 17.8124C7.27349 17.9064 7.08149 17.9804 6.87949 18.0334C6.51649 18.1284 6.11849 18.1564 5.73149 18.1124C5.33649 18.0664 4.94649 17.9464 4.61049 17.7434C4.15949 17.4724 3.80649 17.0574 3.65749 16.4874C3.57949 16.1884 3.56749 15.9124 3.60549 15.6514C3.40749 15.6454 3.20449 15.6134 3.00449 15.5584C2.64249 15.4584 2.28249 15.2834 1.96949 15.0514C1.64849 14.8144 1.37149 14.5144 1.18149 14.1714C0.927487 13.7104 0.828487 13.1764 0.984487 12.6094C1.06649 12.3104 1.19449 12.0654 1.35849 11.8584C1.18849 11.7534 1.02949 11.6244 0.882487 11.4754C0.621487 11.2114 0.397487 10.8794 0.241487 10.5184C0.083487 10.1544 -0.00751302 9.75638 0.00048698 9.36738C0.00948698 8.83838 0.191487 8.32438 0.610487 7.91138C0.830487 7.69438 1.06349 7.54638 1.30849 7.44838ZM4.54149 4.04838C4.85949 4.25538 5.17049 4.51338 5.49549 4.78138C6.34349 5.48538 7.30749 6.28338 8.69049 6.16738L8.78049 6.14538C8.11749 5.42238 7.79149 4.54338 7.49249 3.73738C7.17449 2.87938 6.89349 2.12338 6.24949 1.94638C5.95949 1.86638 5.67749 1.92138 5.43149 2.05738C5.21749 2.17538 5.02649 2.35438 4.87149 2.56338C4.71049 2.77938 4.59149 3.02438 4.52449 3.26638C4.44349 3.56238 4.43949 3.84638 4.54149 4.04838ZM12.0745 7.12438L12.1275 7.18038C12.4225 6.24338 13.0205 5.52138 13.5695 4.85938C14.1535 4.15438 14.6675 3.53338 14.4985 2.88438C14.4235 2.59438 14.2355 2.37838 13.9945 2.23338C13.7865 2.10838 13.5355 2.03238 13.2755 2.00238C13.0075 1.97138 12.7345 1.99038 12.4915 2.05338C12.1955 2.13038 11.9485 2.27038 11.8245 2.46238C11.8045 2.83938 11.7365 3.23538 11.6665 3.64938C11.4815 4.73938 11.2705 5.97838 12.0745 7.12438ZM12.9535 8.68938L12.9755 8.78138C13.6985 8.11838 14.5775 7.79238 15.3835 7.49338C16.2415 7.17438 16.9975 6.89338 17.1745 6.25038C17.2545 5.95938 17.2005 5.67838 17.0635 5.43138C16.9455 5.21738 16.7665 5.02638 16.5575 4.87138C16.3415 4.71138 16.0975 4.59138 15.8545 4.52438C15.5585 4.44338 15.2755 4.44038 15.0735 4.54238C14.8665 4.85938 14.6085 5.17138 14.3395 5.49538C13.6365 6.34438 12.8385 7.30638 12.9535 8.68938ZM12.9335 10.5054L12.9085 10.5924C13.8645 10.3814 14.7885 10.5374 15.6355 10.6824C16.5375 10.8354 17.3335 10.9704 17.8115 10.4994C18.0255 10.2874 18.1195 10.0184 18.1245 9.73838C18.1285 9.49338 18.0695 9.23738 17.9655 8.99738C17.8595 8.75338 17.7065 8.52638 17.5275 8.34538C17.3125 8.12738 17.0685 7.98338 16.8435 7.97238C16.5055 8.14338 16.1265 8.28438 15.7315 8.43038C14.6985 8.81338 13.5245 9.24938 12.9335 10.5054ZM12.0005 12.0724L11.9425 12.1284C12.8785 12.4234 13.6005 13.0214 14.2625 13.5694C14.9665 14.1534 15.5885 14.6684 16.2365 14.4984C16.5265 14.4234 16.7425 14.2354 16.8875 13.9954C17.0135 13.7864 17.0895 13.5364 17.1195 13.2764C17.1495 13.0074 17.1315 12.7344 17.0675 12.4914C16.9905 12.1954 16.8505 11.9484 16.6585 11.8254C16.2815 11.8044 15.8855 11.7364 15.4715 11.6664C14.3825 11.4814 13.1445 11.2714 12.0005 12.0724ZM10.4315 12.9544L10.3405 12.9754C11.0035 13.6994 11.3295 14.5784 11.6285 15.3844C11.9465 16.2424 12.2275 16.9984 12.8715 17.1754C13.1615 17.2554 13.4435 17.2004 13.6895 17.0644C13.9035 16.9464 14.0945 16.7674 14.2495 16.5584C14.4105 16.3424 14.5295 16.0974 14.5965 15.8554C14.6775 15.5584 14.6815 15.2754 14.5795 15.0734C14.2615 14.8664 13.9505 14.6084 13.6255 14.3394C12.7775 13.6364 11.8145 12.8394 10.4315 12.9544ZM8.61449 12.9334L8.52849 12.9084C8.74049 13.8654 8.58349 14.7884 8.43949 15.6364C8.28649 16.5384 8.15049 17.3344 8.62249 17.8114C8.83349 18.0254 9.10349 18.1194 9.38249 18.1244C9.62749 18.1294 9.88449 18.0694 10.1245 17.9654C10.3685 17.8594 10.5945 17.7064 10.7755 17.5274C10.9935 17.3134 11.1375 17.0694 11.1495 16.8434C10.9775 16.5054 10.8375 16.1264 10.6905 15.7314C10.3075 14.6984 9.87149 13.5244 8.61449 12.9334ZM7.05049 12.0034L6.99249 11.9424C6.69849 12.8784 6.10049 13.6004 5.55149 14.2624C4.96749 14.9674 4.45249 15.5884 4.62249 16.2374C4.69749 16.5274 4.88549 16.7434 5.12649 16.8884C5.33449 17.0134 5.58549 17.0904 5.84549 17.1194C6.11349 17.1504 6.38649 17.1314 6.62949 17.0684C6.92549 16.9914 7.17249 16.8504 7.29649 16.6584C7.31749 16.2824 7.38449 15.8854 7.45449 15.4724C7.63949 14.3834 7.84949 13.1474 7.05049 12.0034ZM6.16749 10.4304L6.14549 10.3404C5.42249 11.0034 4.54349 11.3294 3.73749 11.6284C2.87949 11.9464 2.12249 12.2274 1.94649 12.8714C1.86649 13.1624 1.92049 13.4434 2.05749 13.6904C2.17549 13.9034 2.35349 14.0954 2.56349 14.2504C2.77949 14.4104 3.02349 14.5304 3.26649 14.5964C3.56249 14.6784 3.84549 14.6824 4.04749 14.5794C4.25449 14.2614 4.51249 13.9504 4.78149 13.6254C5.48449 12.7774 6.28249 11.8134 6.16749 10.4304ZM6.18749 8.61438L6.21349 8.52838C5.25649 8.74138 4.33249 8.58338 3.48549 8.43938C2.58249 8.28638 1.78649 8.15138 1.30949 8.62238C1.09549 8.83438 1.00149 9.10338 0.996487 9.38238C0.992487 9.62838 1.05149 9.88438 1.15549 10.1244C1.26149 10.3684 1.41449 10.5944 1.59349 10.7764C1.80849 10.9934 2.05249 11.1384 2.27749 11.1494C2.61549 10.9774 2.99449 10.8374 3.38949 10.6904C4.42349 10.3074 5.59749 9.87138 6.18749 8.61438ZM11.3295 7.79138C10.8785 7.33838 10.2525 7.05838 9.56049 7.05838C8.86949 7.05838 8.24249 7.33838 7.79049 7.79038C7.33849 8.24338 7.05849 8.86938 7.05849 9.56038C7.05849 10.2524 7.33849 10.8784 7.79049 11.3304C8.24449 11.7824 8.86949 12.0624 9.56049 12.0624C10.2515 12.0624 10.8765 11.7824 11.3295 11.3294C11.7825 10.8774 12.0625 10.2514 12.0625 9.56038C12.0625 8.87038 11.7825 8.24438 11.3295 7.79138Z" fill="#1A1919"/>
</svg>
