<svg width="20" height="20" viewBox="0 0 20 20" fill="none" xmlns="http://www.w3.org/2000/svg">
<path fill-rule="evenodd" clip-rule="evenodd" d="M19.8536 19.8536C20.0489 19.6583 20.0489 19.3417 19.8536 19.1465L15.4298 14.7225C14.7346 14.0273 13.6018 14.0844 12.7963 14.6483C11.5795 15.5002 10.0981 16 8.5 16C4.35786 16 0.999999 12.6421 1 8.5C1 4.35786 4.35786 1 8.5 1C12.6421 1 16 4.35786 16 8.5C16 9.91018 15.6108 11.2295 14.934 12.3563C14.809 12.5643 14.8329 12.8328 15.0045 13.0044C15.2257 13.2256 15.5935 13.1953 15.7566 12.9285C16.5454 11.6388 17 10.1225 17 8.5C17 3.80558 13.1944 0 8.5 0C3.80558 0 0 3.80558 0 8.5C0 13.1944 3.80558 17 8.5 17C10.3285 17 12.0222 16.4226 13.4086 15.4403C13.8407 15.1341 14.439 15.1461 14.8134 15.5205L19.1465 19.8536C19.3417 20.0489 19.6583 20.0489 19.8536 19.8536ZM4.0997 7.5535C4.0458 7.80529 3.83258 8.00002 3.57508 8.00002C3.27822 8.00002 3.04336 7.74429 3.09956 7.45279C3.52322 5.25511 5.25506 3.52326 7.45274 3.0996C7.74424 3.04341 7.99998 3.27826 7.99998 3.57513C7.99998 3.83262 7.80524 4.04584 7.55345 4.09974C5.82784 4.46915 4.4691 5.82789 4.0997 7.5535ZM3.62651 9.62467C3.89581 9.56252 4.1618 9.73193 4.25344 9.99267C4.34348 10.2488 4.45605 10.4944 4.58876 10.727C4.72571 10.967 4.67915 11.2788 4.45568 11.4413C4.23247 11.6037 3.91776 11.5555 3.77611 11.3186C3.57029 10.9744 3.40103 10.6058 3.27368 10.2182C3.18752 9.95597 3.35755 9.68674 3.62651 9.62467Z" fill="black"/>
</svg>
