<svg width="19" height="19" viewBox="0 0 19 19" fill="none" xmlns="http://www.w3.org/2000/svg">
<path fill-rule="evenodd" clip-rule="evenodd" d="M9.00032 0.499714C9.00032 0.222874 9.22417 3.33329e-06 9.5 3.33329e-06C9.77682 -0.000996088 10.0007 0.222874 10.0007 0.499714V2.29467L11.149 1.14634C11.3438 0.952452 11.6596 0.953451 11.8545 1.14834C12.0484 1.34323 12.0474 1.65904 11.8525 1.85293L10.0007 3.70686V8.2932L13.2436 5.04908L13.2446 2.4286C13.2446 2.15376 13.4675 1.93089 13.7423 1.93089C14.0171 1.93089 14.241 2.15376 14.241 2.4286V4.05166L15.5112 2.78139C15.7061 2.58651 16.0229 2.58651 16.2178 2.78139C16.4136 2.97728 16.4136 3.2941 16.2178 3.48898L14.9506 4.75625H16.5715C16.8474 4.75625 17.0712 4.98112 17.0712 5.25696C17.0712 5.5328 16.8474 5.75667 16.5715 5.75667L13.9502 5.75567L10.7072 8.99979H15.2933L17.1462 7.14786C17.34 6.95298 17.6558 6.95198 17.8517 7.14586C18.0466 7.33975 18.0476 7.65557 17.8537 7.85146L16.7055 8.99979H18.5003C18.7761 8.99979 19 9.22366 19 9.5005C19 9.77534 18.7761 10.0002 18.5003 10.0002H16.7074L17.8537 11.1465C18.0496 11.3414 18.0496 11.6583 17.8537 11.8531C17.6588 12.048 17.342 12.048 17.1472 11.8531L15.2933 10.0002H10.7072L13.9502 13.2423L16.5715 13.2443C16.8454 13.2443 17.0692 13.4672 17.0692 13.742C17.0692 14.0169 16.8454 14.2408 16.5715 14.2408H14.9476L16.2178 15.51C16.4136 15.7059 16.4136 16.0227 16.2178 16.2176C16.0229 16.4125 15.7061 16.4135 15.5112 16.2176L14.243 14.9503V16.5714C14.243 16.8472 14.0191 17.0711 13.7433 17.0711C13.4675 17.0711 13.2436 16.8472 13.2436 16.5714V13.9499L10.0007 10.7068V15.2921L11.8525 17.1461C12.0474 17.34 12.0484 17.6558 11.8545 17.8517C11.6596 18.0466 11.3438 18.0476 11.149 17.8527L10.0007 16.7053V18.4993C10.0007 18.7761 9.77682 19 9.5 19C9.22417 19 9.00032 18.7761 9.00032 18.5003V16.7073L7.85404 17.8537C7.65916 18.0486 7.34236 18.0486 7.14649 17.8537C6.95161 17.6588 6.95161 17.342 7.14649 17.1461L9.00032 15.2921V10.7068L5.75736 13.9499V16.5714C5.75736 16.8472 5.53351 17.0711 5.25768 17.0711C4.98185 17.0711 4.758 16.8472 4.758 16.5714V14.9503L3.4898 16.2176C3.29492 16.4125 2.97812 16.4135 2.78324 16.2176C2.58737 16.0217 2.58737 15.7059 2.78324 15.51L4.05244 14.2408H2.42947C2.15564 14.2408 1.93178 14.0169 1.93178 13.742C1.93178 13.4672 2.15564 13.2443 2.42947 13.2443L5.05081 13.2423L8.29376 10.0002H3.70766L1.85383 11.8531C1.65895 12.048 1.34215 12.048 1.14728 11.8531C0.951399 11.6583 0.951399 11.3414 1.14728 11.1465L2.29355 10.0002H0.500684C0.224858 10.0002 0 9.77534 0 9.5005C0 9.22366 0.224858 8.99979 0.500684 8.99979H2.29555L1.14728 7.85046C0.953398 7.65557 0.954397 7.33975 1.14927 7.14586C1.34415 6.95198 1.66095 6.95298 1.85483 7.14786L3.70766 8.99979H8.29376L5.05081 5.75567H2.42947C2.15364 5.75567 1.92978 5.5328 1.92978 5.25696C1.92978 4.98012 2.15364 4.75625 2.42947 4.75625H4.05044L2.78324 3.48898C2.58737 3.2941 2.58737 2.97728 2.78324 2.78139C2.97812 2.58651 3.29492 2.58651 3.4898 2.78139L4.75999 4.05166V2.4286C4.75999 2.15376 4.98385 1.93089 5.25868 1.93089C5.53351 1.93089 5.75636 2.15376 5.75636 2.4286L5.75736 5.04908L9.00032 8.2932V3.70686L7.14649 1.85293C6.95161 1.65704 6.95161 1.34123 7.14649 1.14534C7.34236 0.950453 7.65916 0.950453 7.85404 1.14534L9.00032 2.29268V0.499714Z" fill="#1A1919"/>
</svg>
