<svg width="14" height="14" viewBox="0 0 14 14" fill="none" xmlns="http://www.w3.org/2000/svg">
<path fill-rule="evenodd" clip-rule="evenodd" d="M0.853732 13.8531C0.657851 14.049 0.342042 14.049 0.146161 13.8531C-0.0487204 13.6582 -0.0487204 13.3414 0.146161 13.1465L6.29343 6.99913L0.147161 0.852747C-0.047721 0.657862 -0.047721 0.341049 0.147161 0.146164C0.343042 -0.0487213 0.659849 -0.0487213 0.854731 0.146164L7.001 6.29254L13.1463 0.146164C13.3421 -0.0487213 13.659 -0.0487213 13.8538 0.146164C14.0487 0.341049 14.0487 0.657862 13.8538 0.852747L7.70757 6.99913L13.8538 13.1455C14.0487 13.3404 14.0487 13.6572 13.8538 13.8521C13.659 14.048 13.3421 14.048 13.1463 13.8521L7.001 7.70571L0.853732 13.8531Z" fill="#1A1919"/>
</svg>
