<svg width="19" height="20" viewBox="0 0 19 20" fill="none" xmlns="http://www.w3.org/2000/svg">
<path fill-rule="evenodd" clip-rule="evenodd" d="M9.9972 19.5004C9.9972 19.7753 9.77431 19.9982 9.49945 19.9982C9.22458 19.9982 9.00069 19.7753 9.00069 19.5004V18.0002H5.49841C5.22255 18.0002 4.99866 17.7763 4.99866 17.5004C4.99866 17.4035 5.02565 17.3135 5.07362 17.2375L5.79627 15.7902L0.341947 13.9721C0.0810747 13.8862 -0.0608555 13.6043 0.0251022 13.3434C0.0400949 13.2995 0.0600851 13.2595 0.0840733 13.2235L0.0820743 13.2225L1.94816 10.4229L1.02561 7.65524C0.939653 7.39437 1.08158 7.11251 1.34246 7.02655C1.4584 6.98757 1.57834 6.99457 1.68429 7.03654V7.03554L6.00117 8.7627L6.00217 2.49777C6.00217 2.22291 6.22506 2.00002 6.49992 2.00002C6.58588 2.00002 6.66684 2.02201 6.73781 2.05999L8.20908 2.79563L9.02069 0.362822L9.02468 0.351827L9.02768 0.341832V0.339833L9.03168 0.329838V0.328838L9.03668 0.317844L9.04068 0.306849L9.04567 0.295855L9.04667 0.293856L9.05067 0.28486L9.05167 0.282861L9.05567 0.273865L9.05667 0.271867L9.06067 0.26387L9.06266 0.259872L9.06666 0.252876L9.06866 0.249877L9.07266 0.242881L9.07466 0.238883L9.07866 0.232886L9.08165 0.228888L9.08565 0.222891L9.08865 0.217893L9.09265 0.212895L9.09565 0.207898L9.09865 0.2029L9.10264 0.197903L9.10664 0.192905L9.11064 0.188907L9.11364 0.18391L9.11764 0.178912L9.12164 0.173915L9.12563 0.169917L9.12963 0.164919L9.13363 0.160921L9.13763 0.156923L9.14163 0.151925L9.14562 0.147927L9.15062 0.143929L9.17661 0.119941L9.18161 0.114944L9.1866 0.111945C9.21359 0.0889563 9.24358 0.0699656 9.27656 0.052974L9.28456 0.0489759L9.28755 0.0479764L9.29655 0.0439784L9.29755 0.0429789L9.30754 0.0389809L9.30854 0.0379813L9.33153 0.0299853V0.0289858L9.34253 0.0259872L9.34353 0.0249877L9.35452 0.0219892L9.35552 0.0209897L9.36551 0.0189907L9.36851 0.0179912L9.37751 0.0159921L9.38051 0.0149926L9.3885 0.0129936L9.3925 0.0119941L9.4005 0.00999509L9.4055 0.00899558L9.41249 0.00799607L9.41749 0.00699656L9.42449 0.00599706L9.43048 0.00499755L9.43648 0.00399804L9.44847 0.00299853L9.45447 0.00199902L9.46646 0.000999509L9.48446 0L9.52843 0.000999509L9.54043 0.00199902H9.54543L9.55242 0.00299853L9.55842 0.00399804H9.56442L9.57041 0.00499755L9.57641 0.00599706L9.58241 0.00699656L9.58841 0.00799607L9.5954 0.00899558L9.5994 0.00999509L9.6074 0.0119941L9.61139 0.0129936L9.61939 0.0149926L9.62339 0.0159921L9.63138 0.0179912L9.63438 0.0189907L9.64438 0.0209897L9.64638 0.0219892L9.65637 0.0249877L9.65737 0.0259872L9.66837 0.0289858V0.0299853L9.69136 0.0379813L9.69236 0.0389809L9.70235 0.0429789L9.70435 0.0439784L9.71334 0.0479764L9.71534 0.0489759L9.72334 0.052974C9.75632 0.0689661 9.78631 0.0889563 9.81429 0.111945L9.81829 0.114944L9.82329 0.119941L9.85028 0.143929L9.85428 0.147927L9.85827 0.151925L9.86227 0.156923L9.86627 0.160921L9.87127 0.164919L9.87527 0.169917L9.87926 0.173915L9.88226 0.178912L9.88626 0.18391L9.89026 0.188907L9.89426 0.192905L9.89725 0.197903L9.90125 0.2029L9.90525 0.207898L9.90825 0.212895L9.91225 0.217893L9.91525 0.222891L9.91924 0.228888L9.92124 0.232886L9.92524 0.238883L9.92724 0.242881L9.93124 0.249877L9.93324 0.252876L9.93723 0.259872L9.93923 0.26387L9.94323 0.271867L9.94523 0.273865L9.94923 0.282861L9.95023 0.28486L9.95423 0.293856L9.95523 0.295855L9.95922 0.30585L9.96022 0.306849L9.96422 0.317844L9.96822 0.328838V0.329838L9.97222 0.339833V0.341832L9.97622 0.351827L9.97921 0.362822L10.7908 2.79563L12.2631 2.05999C12.3341 2.02201 12.415 2.00002 12.5 2.00002C12.7748 2.00002 12.9987 2.22291 12.9987 2.49777V8.7627L17.3166 7.03554V7.03654C17.4216 6.99457 17.5415 6.98757 17.6574 7.02655C17.9183 7.11251 18.0602 7.39437 17.9743 7.65524L17.0517 10.4229L18.9188 13.2225L18.9168 13.2235C18.9408 13.2595 18.9608 13.2995 18.9748 13.3434C19.0608 13.6043 18.9198 13.8862 18.659 13.9721L13.2036 15.7902L13.9273 17.2375C13.9743 17.3135 14.0012 17.4035 14.0012 17.5004C14.0012 17.7763 13.7773 18.0002 13.5015 18.0002H9.9972V19.5004ZM9.50045 2.07198L8.97871 3.63621C8.97071 3.6652 8.95971 3.69319 8.94572 3.72117C8.82278 3.96705 8.52293 4.067 8.27705 3.94406L6.99768 3.30338V9.47435C7.00068 9.54331 6.98968 9.61528 6.9617 9.68424C6.85975 9.94012 6.56889 10.0641 6.31401 9.96211L2.30998 8.36089L2.95566 10.2969C3.02263 10.4479 3.01264 10.6288 2.91368 10.7767L1.27549 13.2345L6.63686 15.0216C6.66584 15.0296 6.69383 15.0406 6.72181 15.0546C6.96769 15.1775 7.06664 15.4764 6.9437 15.7223L6.30602 16.9997H9.00169V14.7687L6.22106 12.9157C5.99217 12.7627 5.9302 12.4519 6.08313 12.222C6.23605 11.9921 6.5469 11.9301 6.77579 12.0831L9.00169 13.5673V8.49883C9.00169 8.22396 9.22458 8.00107 9.49945 8.00107C9.77431 8.00107 9.99821 8.22396 9.99821 8.49883L9.9972 13.5663L12.2221 12.0831C12.452 11.9301 12.7628 11.9921 12.9158 12.222C13.0687 12.4519 13.0067 12.7627 12.7768 12.9157L9.9972 14.7687V16.9997H12.6949L12.0562 15.7223C11.9333 15.4764 12.0332 15.1775 12.2791 15.0546C12.3071 15.0406 12.3351 15.0296 12.364 15.0216L17.7244 13.2345L16.0862 10.7767C15.9883 10.6288 15.9783 10.4479 16.0452 10.2969L16.6899 8.36089L12.6869 9.96211C12.431 10.0641 12.1402 9.94012 12.0382 9.68424C12.0102 9.61528 11.9992 9.54331 12.0032 9.47435L12.0022 3.30338L10.7228 3.94406C10.477 4.067 10.1781 3.96705 10.0552 3.72117C10.0412 3.69319 10.0302 3.6652 10.0212 3.63621L9.50045 2.07198Z" fill="#1A1919"/>
</svg>
