<svg width="21" height="21" viewBox="0 0 21 21" fill="none" xmlns="http://www.w3.org/2000/svg">
<path fill-rule="evenodd" clip-rule="evenodd" d="M0.501 0H14.51C14.786 0 15.01 0.224 15.01 0.5V5.004H19.513C19.789 5.004 20.013 5.229 20.013 5.505V19.513C20.013 19.79 19.789 20.014 19.513 20.014H5.504C5.228 20.014 5.004 19.79 5.004 19.513V15.01H0.501C0.225 15.01 0 14.786 0 14.509V0.5C0 0.224 0.225 0 0.501 0ZM14.51 6.006H6.004V19.014H19.012V6.006H14.51ZM14.009 1.001H1.001V14.009H5.004V5.505C5.004 5.229 5.228 5.004 5.504 5.004H14.009V1.001Z" fill="#1A1919"/>
</svg>
