<svg width="20" height="20" viewBox="0 0 20 20" fill="none" xmlns="http://www.w3.org/2000/svg">
<path fill-rule="evenodd" clip-rule="evenodd" d="M0.5 0H18.51C18.786 0 19.011 0.224 19.011 0.5V18.512C19.011 18.788 18.786 19.012 18.51 19.012H0.5C0.224 19.012 0 18.788 0 18.512V0.5C0 0.224 0.224 0 0.5 0ZM4.148 9.86C3.953 9.664 3.953 9.348 4.148 9.152C4.344 8.957 4.661 8.957 4.856 9.152L8.504 12.801L15.155 6.15C15.351 5.955 15.668 5.955 15.863 6.15C16.058 6.346 16.058 6.662 15.863 6.858L8.858 13.862C8.663 14.057 8.346 14.057 8.15 13.862L4.148 9.86ZM1 18.012H18.01V1.002H1V18.012Z" fill="#1A1919"/>
</svg>
