<svg width="17" height="14" viewBox="0 0 17 14" fill="none" xmlns="http://www.w3.org/2000/svg">
<path fill-rule="evenodd" clip-rule="evenodd" d="M0.501 1.001C0.225 1.001 0 0.776 0 0.5C0 0.225 0.225 0 0.501 0H15.51C15.786 0 16.01 0.225 16.01 0.5C16.01 0.776 15.786 1.001 15.51 1.001H0.501ZM0.501 13.008C0.225 13.008 0 12.784 0 12.508C0 12.232 0.225 12.008 0.501 12.008H15.51C15.786 12.008 16.01 12.232 16.01 12.508C16.01 12.784 15.786 13.008 15.51 13.008H0.501ZM0.501 7.004C0.225 7.004 0 6.78 0 6.504C0 6.228 0.225 6.003 0.501 6.003H15.51C15.786 6.003 16.01 6.228 16.01 6.504C16.01 6.78 15.786 7.004 15.51 7.004H0.501Z" fill="#1A1919"/>
</svg>
