<svg width="19" height="19" viewBox="0 0 19 19" fill="none" xmlns="http://www.w3.org/2000/svg">
<path d="M7.37177 4.66046C7.12405 4.76298 6.83236 4.65873 6.73003 4.41092L5.19846 0.701889C5.09153 0.442932 5.20481 0.144615 5.46371 0.0375515C5.72275 -0.0695728 6.01576 0.0611035 6.12275 0.320198L7.65429 4.02917C7.75659 4.27689 7.61942 4.55797 7.37177 4.66046Z" fill="black"/>
<path d="M4.03291 7.64262C4.28041 7.74545 4.56178 7.60892 4.66481 7.3615C4.76789 7.11401 4.66428 6.82207 4.41669 6.7192L0.710984 5.17948C0.452264 5.07198 0.153703 5.18461 0.0460634 5.44327C-0.0616293 5.70207 0.0684023 5.99538 0.327264 6.10293L4.03291 7.64262Z" fill="black"/>
<path d="M4.66059 11.1931C4.76312 11.4408 4.65886 11.7325 4.41105 11.8348L0.70189 13.3664C0.442925 13.4734 0.144608 13.3601 0.0375452 13.1012C-0.0695677 12.8421 0.0611086 12.5491 0.320199 12.4421L4.02929 10.9105C4.27702 10.8083 4.5581 10.9454 4.66059 11.1931Z" fill="black"/>
<path d="M14.1484 11.8456C13.9008 11.7427 13.7972 11.4508 13.9002 11.2033C14.0033 10.9558 14.2846 10.8193 14.5321 10.9222L18.2379 12.4619C18.4967 12.5694 18.6268 12.8627 18.5191 13.1215C18.4115 13.3802 18.1129 13.4928 17.8542 13.3853L14.1484 11.8456Z" fill="black"/>
<path d="M11.1933 13.9043C11.441 13.8018 11.7327 13.906 11.8351 14.1538L13.3667 17.8631C13.4736 18.122 13.3604 18.4203 13.1015 18.5274C12.8424 18.6345 12.5494 18.5038 12.4424 18.2448L10.9108 14.5356C10.8085 14.2878 10.9457 14.0068 11.1933 13.9043Z" fill="black"/>
<path d="M7.64265 14.5319C7.74548 14.2844 7.60896 14.0031 7.36155 13.9C7.11405 13.797 6.8221 13.9006 6.71923 14.1482L5.17945 17.854C5.07195 18.1127 5.18458 18.4113 5.44323 18.5189C5.70204 18.6266 5.99534 18.4966 6.1029 18.2377L7.64265 14.5319Z" fill="black"/>
<path d="M10.9222 4.03271C10.8193 4.28021 10.9559 4.56158 11.2033 4.66462C11.4508 4.76768 11.7427 4.66407 11.8456 4.41649L13.3853 0.710823C13.4928 0.452095 13.3802 0.153526 13.1215 0.0458981C12.8627 -0.0617908 12.5694 0.0682446 12.4619 0.327102L10.9222 4.03271Z" fill="black"/>
<path d="M14.1539 6.72977C13.9061 6.83211 13.8019 7.1238 13.9044 7.37153C14.0069 7.61917 14.288 7.75633 14.5357 7.65404L18.2447 6.12247C18.5038 6.01548 18.6345 5.72245 18.5274 5.46342C18.4203 5.20451 18.122 5.09125 17.8631 5.19817L14.1539 6.72977Z" fill="black"/>
<path fill-rule="evenodd" clip-rule="evenodd" d="M13.2825 9.28247C13.2825 11.4916 11.4916 13.2825 9.28247 13.2825C7.07333 13.2825 5.28247 11.4916 5.28247 9.28247C5.28247 7.07333 7.07333 5.28247 9.28247 5.28247C11.4916 5.28247 13.2825 7.07333 13.2825 9.28247ZM12.2825 9.28247C12.2825 10.9393 10.9393 12.2825 9.28247 12.2825C7.62562 12.2825 6.28247 10.9393 6.28247 9.28247C6.28247 7.62562 7.62562 6.28247 9.28247 6.28247C10.9393 6.28247 12.2825 7.62562 12.2825 9.28247Z" fill="black"/>
</svg>
